<?xml version="1.0" encoding="UTF-8" standalone="no"?>
<svg
   xmlns:dc="http://purl.org/dc/elements/1.1/"
   xmlns:cc="http://creativecommons.org/ns#"
   xmlns:rdf="http://www.w3.org/1999/02/22-rdf-syntax-ns#"
   xmlns:svg="http://www.w3.org/2000/svg"
   xmlns="http://www.w3.org/2000/svg"
   xmlns:sodipodi="http://sodipodi.sourceforge.net/DTD/sodipodi-0.dtd"
   xmlns:inkscape="http://www.inkscape.org/namespaces/inkscape"
   fill="#000000"
   version="1.1"
   id="Capa_1"
   width="800"
   height="900"
   viewBox="0 0 162.202 182.47725"
   xml:space="preserve"
   sodipodi:docname="male-head-side-view-with-brains-svgrepo-com2.svg"
   inkscape:version="1.0 (4035a4fb49, 2020-05-01)"><metadata
   id="metadata1492"><rdf:RDF><cc:Work
       rdf:about=""><dc:format>image/svg+xml</dc:format><dc:type
         rdf:resource="http://purl.org/dc/dcmitype/StillImage" /><dc:title></dc:title></cc:Work></rdf:RDF></metadata><defs
   id="defs1490"><inkscape:path-effect
   end_linecap_type="round"
   scale_width="1"
   miter_limit="4"
   linejoin_type="spiro"
   start_linecap_type="round"
   interpolator_beta="0.75"
   interpolator_type="CentripetalCatmullRom"
   sort_points="true"
   offset_points="0.34056465,1.7889926"
   lpeversion="1"
   is_visible="true"
   id="path-effect913"
   effect="powerstroke" /><inkscape:path-effect
   step="1"
   simplify_just_coalesce="false"
   simplify_individual_paths="false"
   helper_size="0"
   smooth_angles="0"
   threshold="0.6"
   steps="1"
   lpeversion="1"
   is_visible="true"
   id="path-effect911"
   effect="simplify" /><inkscape:path-effect
   effect="powerstroke"
   id="path-effect909"
   is_visible="true"
   lpeversion="1"
   offset_points="0.34056465,1.7889926"
   sort_points="true"
   interpolator_type="CentripetalCatmullRom"
   interpolator_beta="0.75"
   start_linecap_type="round"
   linejoin_type="spiro"
   miter_limit="4"
   scale_width="1"
   end_linecap_type="round" /><inkscape:path-effect
   effect="simplify"
   id="path-effect907"
   is_visible="true"
   lpeversion="1"
   steps="1"
   threshold="0.6"
   smooth_angles="0"
   helper_size="0"
   simplify_individual_paths="false"
   simplify_just_coalesce="false"
   step="1" /><inkscape:path-effect
   effect="powerstroke"
   id="path-effect905"
   is_visible="true"
   lpeversion="1"
   offset_points="0.34056465,1.7889926"
   sort_points="true"
   interpolator_type="CentripetalCatmullRom"
   interpolator_beta="0.75"
   start_linecap_type="round"
   linejoin_type="spiro"
   miter_limit="4"
   scale_width="1"
   end_linecap_type="round" /><inkscape:path-effect
   effect="simplify"
   id="path-effect903"
   is_visible="true"
   lpeversion="1"
   steps="1"
   threshold="0.6"
   smooth_angles="0"
   helper_size="0"
   simplify_individual_paths="false"
   simplify_just_coalesce="false"
   step="1" /><inkscape:path-effect
   end_linecap_type="round"
   scale_width="1"
   miter_limit="4"
   linejoin_type="spiro"
   start_linecap_type="round"
   interpolator_beta="0.75"
   interpolator_type="CentripetalCatmullRom"
   sort_points="true"
   offset_points="0.34056465,1.7889926"
   lpeversion="1"
   is_visible="true"
   id="path-effect2609"
   effect="powerstroke" /><inkscape:path-effect
   step="1"
   simplify_just_coalesce="false"
   simplify_individual_paths="false"
   helper_size="0"
   smooth_angles="0"
   threshold="0.6"
   steps="1"
   lpeversion="1"
   is_visible="true"
   id="path-effect2607"
   effect="simplify" /><inkscape:path-effect
   end_linecap_type="round"
   scale_width="1"
   miter_limit="4"
   linejoin_type="spiro"
   start_linecap_type="round"
   interpolator_beta="0.75"
   interpolator_type="CentripetalCatmullRom"
   sort_points="true"
   offset_points="0.34056465,1.7889926"
   lpeversion="1"
   is_visible="true"
   id="path-effect2597"
   effect="powerstroke" /><inkscape:path-effect
   step="1"
   simplify_just_coalesce="false"
   simplify_individual_paths="false"
   helper_size="0"
   smooth_angles="0"
   threshold="0.6"
   steps="1"
   lpeversion="1"
   is_visible="true"
   id="path-effect2595"
   effect="simplify" /><inkscape:path-effect
   effect="simplify"
   id="path-effect2572"
   is_visible="true"
   lpeversion="1"
   steps="1"
   threshold="0.5"
   smooth_angles="360"
   helper_size="0"
   simplify_individual_paths="false"
   simplify_just_coalesce="false" /><inkscape:path-effect
   effect="simplify"
   id="path-effect2566"
   is_visible="true"
   lpeversion="1"
   steps="1"
   threshold="0.5"
   smooth_angles="360"
   helper_size="0"
   simplify_individual_paths="false"
   simplify_just_coalesce="false" /><inkscape:path-effect
   effect="spiro"
   id="path-effect2562"
   is_visible="true"
   lpeversion="1" /><inkscape:path-effect
   effect="simplify"
   id="path-effect2560"
   is_visible="true"
   lpeversion="1"
   steps="1"
   threshold="0.5"
   smooth_angles="360"
   helper_size="0"
   simplify_individual_paths="false"
   simplify_just_coalesce="false" /><inkscape:path-effect
   effect="powerstroke"
   id="path-effect2554"
   is_visible="true"
   lpeversion="1"
   offset_points="0.64583356,1.7889926"
   sort_points="true"
   interpolator_type="CentripetalCatmullRom"
   interpolator_beta="0.75"
   start_linecap_type="round"
   linejoin_type="spiro"
   miter_limit="4"
   scale_width="1"
   end_linecap_type="round" /><inkscape:path-effect
   effect="simplify"
   id="path-effect2552"
   is_visible="true"
   lpeversion="1"
   steps="1"
   threshold="0.6"
   smooth_angles="0"
   helper_size="0"
   simplify_individual_paths="false"
   simplify_just_coalesce="false"
   step="1" /><inkscape:path-effect
   effect="powerstroke"
   id="path-effect2547"
   is_visible="true"
   lpeversion="1"
   offset_points="0.34056465,1.7889926"
   sort_points="true"
   interpolator_type="CentripetalCatmullRom"
   interpolator_beta="0.75"
   start_linecap_type="round"
   linejoin_type="spiro"
   miter_limit="4"
   scale_width="1"
   end_linecap_type="round" /><inkscape:path-effect
   effect="simplify"
   id="path-effect2545"
   is_visible="true"
   lpeversion="1"
   steps="1"
   threshold="0.6"
   smooth_angles="0"
   helper_size="0"
   simplify_individual_paths="false"
   simplify_just_coalesce="false"
   step="1" /><inkscape:path-effect
   effect="powerstroke"
   id="path-effect2540"
   is_visible="true"
   lpeversion="1"
   offset_points="0.18659971,1.7889926"
   sort_points="true"
   interpolator_type="CentripetalCatmullRom"
   interpolator_beta="0.75"
   start_linecap_type="round"
   linejoin_type="spiro"
   miter_limit="4"
   scale_width="1"
   end_linecap_type="round" /><inkscape:path-effect
   effect="simplify"
   id="path-effect2538"
   is_visible="true"
   lpeversion="1"
   steps="1"
   threshold="0.6"
   smooth_angles="0"
   helper_size="0"
   simplify_individual_paths="false"
   simplify_just_coalesce="false"
   step="1" /><marker
   inkscape:stockid="Arrow1Lstart"
   orient="auto"
   refY="0"
   refX="0"
   id="Arrow1Lstart"
   style="overflow:visible"
   inkscape:isstock="true"><path
     id="path2258"
     d="M 0,0 5,-5 -12.5,0 5,5 Z"
     style="fill:#000000;fill-opacity:1;fill-rule:evenodd;stroke:none;stroke-width:1pt;stroke-opacity:1"
     transform="matrix(0.8,0,0,0.8,10,0)" /></marker>
	
</defs><sodipodi:namedview
   inkscape:document-rotation="0"
   pagecolor="#ffffff"
   bordercolor="#666666"
   borderopacity="1"
   objecttolerance="10"
   gridtolerance="10"
   guidetolerance="10"
   inkscape:pageopacity="0"
   inkscape:pageshadow="2"
   inkscape:window-width="1920"
   inkscape:window-height="1017"
   id="namedview1488"
   showgrid="false"
   inkscape:snap-grids="true"
   inkscape:zoom="0.53125"
   inkscape:cx="647.9934"
   inkscape:cy="364.56973"
   inkscape:window-x="-8"
   inkscape:window-y="-8"
   inkscape:window-maximized="1"
   inkscape:current-layer="layer2" />

<g
   inkscape:label="Layer 2"
   id="layer3"
   inkscape:groupmode="layer"><rect
     y="-40.480286"
     x="-39.400806"
     height="267.70959"
     width="301.17331"
     id="rect916"
     style="fill:#3366cc;fill-rule:evenodd;stroke:#ffffff;stroke-width:3.83154;stroke-linejoin:bevel;stroke-opacity:1" /></g><g
   inkscape:label="Layer 1"
   id="layer2"
   inkscape:groupmode="layer"><path
     style="display:inline;mix-blend-mode:color-dodge;fill:#6699ff;stroke:#ffffff;stroke-width:10.0014;stroke-linejoin:round;stroke-miterlimit:4.4;stroke-dasharray:none;stroke-dashoffset:0.745967;stroke-opacity:1;paint-order:fill markers stroke"
     sodipodi:nodetypes="cccccccccccccsccccccccccccccccccccccsccccccccccccccccsccccscccssccccccscccccsccccccscccccscccccsccc"
     d="m 148.82236,97.091719 c 0.036,0 0,2.339 -1.954,4.409011 -1.419,1.491 -3.398,2.411 -5.913,2.733 0.006,0.146 0.024,0.329 0.055,0.549 l 0.104,5.79 c -0.085,0.792 -0.438,2.734 -2.618,4.293 0.396,1.571 0.335,4.062 -1.973,7.295 -1.169,1.571 -1.65,2.21 -1.157,3.97 0.433,2.303 1.34,9 -2.441,11.716 -1.407,1.291 -5.986,4.226 -17.641,2.765 l -1.73501,-0.244 c -5.07799,-0.767 -9.51799,-1.113 -12.343,2.424 -3.938995,7.611 -10.917995,21.714 -11.492995,25.05099 -0.256,1.522 -1.57701,2.59402 -3.06,2.59402 -0.17701,0 -0.35601,-0.012 -0.524,-0.036 -1.696,-0.29201 -2.84401,-1.899 -2.558,-3.593 0.89799,-5.297 10.525,-23.76 12.43999,-27.407 5.597015,-7.13 13.646015,-5.906 18.463015,-5.188 l 1.577,0.226 c 9.858,1.181 12.641,-1.17 12.671,-1.176 0.214,-0.268 0.329,-0.329 0.621,-0.499 0.262,-0.47 0.335,-3.179 -0.042,-5.213 -1.255,-4.433 0.81,-7.203 1.924,-8.701 0.975,-1.364 1.193,-2.095 1.212,-2.375 -1.455,-2.21 -0.944,-4.292 0.17,-5.431 0.348,-0.366 0.773,-0.621 1.23,-0.768 0.548,-0.177 0.877,-0.378 1.054,-0.493 l -0.098,-4.549 c -0.292,-2.095 0.079,-4.019 1.126,-5.383011 1.029,-1.327 2.309,-1.632 2.808,-1.687 1.899,-0.049 3.1,-0.384 3.617,-0.932 0,-0.146 0.273,-0.682 0.292,-0.847 -0.243,-1.264 -4.067,-8.829 -7.489,-14.852 -3.41,-6.546 -1.054,-11.417 0.511,-14.641 0.493,-1.02 1.005,-2.07699 1.06,-2.69099 1.718,-17.795 -5.182,-27.611004 -11.387,-34.164003 C 113.20736,17.205727 97.734355,14.462727 86.718355,14.462727 h -0.50501 c -28.23899,0.203999 -38.81199,9.383 -46.50899,17.975 -16.76601,18.712002 -13.73401,34.680992 -13.60301,35.358992 0.387,8.382 10.543,23.413 14.43401,28.547 12.556,18.035011 6.53999,32.138011 6.278,32.734011 -0.703,1.571 -2.56301,2.29 -4.107,1.584 -1.574,-0.683 -2.28301,-2.521 -1.59801,-4.092 0.21301,-0.512 4.746,-11.68 -5.61099,-26.56201 -1.477,-1.948001 -15.10101,-20.228001 -15.56401,-31.438001 -0.101,-0.262 -3.891,-19.06499 15.13501,-40.291993 9.21499,-10.279999 21.77699,-19.8339989 51.09699,-20.0439999 12.50101,0.131 29.837015,2.8739999 43.695015,17.5270009 7.118,7.504999 15.034,18.736002 13.08,39.044002 -0.165,1.72599 -0.92,3.29399 -1.669,4.80699 -1.37,2.832 -2.545,5.276 -0.646,8.948 8.605,15.123 8.306,17.601 8.197,18.532 z M 97.544855,-16.923752 c 0,0 0.69482,-12.244463 -1.91118,-9.812463 -2.408,2.244 0.31778,6.195955 -3.80422,7.967955 -0.21,0.091 -2.49277,-6.651609 -2.71177,-6.562609 -0.329,3.042 13.654775,1.468609 2.71177,6.562609 -0.423,0.201 2.87098,-11.336837 2.42998,-11.336837 -1.172,0 -1.89998,12.481837 -2.42998,11.336837 -0.728,-1.559 8.333975,-7.016543 9.891975,-7.738543 5.779,-2.694 -7.010755,2.796588 -6.087755,-0.229412 -2.226,0.457 -12.00212,14.311904 -10.90749,12.511561 l 5.33713,-8.777989 c 3.2522,-5.348906 1.0171,7.012186 -2.3559,3.209186 -3.626,-4.083 -0.886,7.378 0,0 2.101,-17.695 -18.96196,2.665197 4.12204,1.025197 23.264015,-1.571 34.076855,-9.996689 36.359855,4.781311 0.884,5.7180001 7.12295,-0.487946 4.13995,2.983053 -5.553,6.4850011 -3.17788,-4.869811 -22.13688,-7.064811 z m 19.473945,-0.479223 c 5.057,0.594 -13.48459,2.918241 -9.57458,2.87624 0.007,-0.019 9.56758,-2.85824 9.57458,-2.87624 0.676,-2.295 9.6489,-0.03774 7.9209,-2.251741 -0.238,-0.298 -8.3894,-3.633438 -10.87341,-3.520438 -0.049,0.006 0.031,0 0,0 -1.668,0 10.70278,19.1651061 10.62078,17.4811071 -0.082,-1.714001 -18.97486,-8.7626871 -17.24285,-8.8326881 4.549,-0.240999 12.99577,-10.053205 14.34077,-8.327205 3.124,4.01 10.85034,0.262054 10.18034,3.534054 5.243,-0.691 -9.01063,1.99117 -7.02563,-0.33483 1.76,-2.058 3.85261,9.558766 3.24961,5.667767 -1.607,-10.424 30.30821,-13.798831 12.77421,-13.798831 -1.482,0 -50.310835,2.347911 -51.845835,2.454911 -9.365,0.66 -12.90152,-0.47117 -19.58652,4.03083 1.504,0.201 28.96332,12.8128571 30.37932,13.6278581 3.646995,2.088999 -14.8792,-26.4424011 -14.4352,-20.8314011 0.137,1.717 3.94613,8.579125 2.23213,8.710125 -0.088,0.006 0.088,0 0,0 -1.611,0 -4.50161,0.293607 -4.62661,-1.341393 -0.274,-3.434 43.350265,16.4518021 41.606265,15.4408031 -2.902,-1.671001 -43.478275,-14.2971171 -45.417275,-13.4541171 -3.054,3.846 8.98562,-5.230293 8.43762,-0.645293 -0.655,5.529001 -10.83062,-2.049707 -8.43762,0.645293 2.725,3.063 0.45613,-7.060265 3.54913,-7.060265 3.641,0 1.99923,6.735035 5.78323,5.118035 3.124,-1.346 11.959085,10.592114 14.221085,8.479115 3.231,-2.98 9.25756,-5.346696 14.19556,-4.791696 z"
     id="path1483" /><path
     inkscape:path-effect="#path-effect911;#path-effect913"
     inkscape:original-d="m 63.788975,36.857609 c 11.46171,0.12295 22.97032,-0.561798 34.34866,1.14496 3.782325,0.56734 7.780585,1.5266 11.449565,1.5266"
     style="fill:#cc0000;fill-rule:nonzero;stroke:#d53e4f;stroke-width:16.2202;stroke-linecap:butt;stroke-linejoin:miter;stroke-miterlimit:4.4;stroke-dasharray:none;stroke-opacity:1"
     id="path-1"
     d="m 63.847875,38.645632 c 3.26398,-0.107521 8.837182,-0.237826 15.54056,-0.06594 v 0 c 4.552363,0.116733 10.095662,0.382895 16.268291,0.971279 6.115384,0.582927 10.876404,1.296677 13.644964,1.744257 a 1.7889926,1.7889926 90 0 0 0.57102,-3.532126 C 107.05372,37.307372 102.21179,36.581609 95.996246,35.989135 89.724678,35.39132 84.096803,35.121268 79.480152,35.002887 v 0 c -6.79786,-0.174313 -12.446265,-0.04213 -15.750077,0.0667 a 1.7889926,1.7889926 90 0 0 0.1178,3.576046 z" /><path
     d="m 54.303075,62.581802 c 3.26397,-0.10752 8.83719,-0.237827 15.540558,-0.06594 v 0 c 4.552358,0.11673 10.095664,0.382889 16.268287,0.971273 6.115384,0.582928 10.876394,1.296682 13.644956,1.744267 A 1.7889926,1.7889926 90 0 0 100.3279,61.699277 C 97.508904,61.243537 92.666988,60.517769 86.45144,59.925294 80.179877,59.327479 74.551994,59.05743 69.935348,58.939051 v 0 c -6.797848,-0.174308 -12.446272,-0.04213 -15.750073,0.0667 a 1.7889926,1.7889926 90 0 0 0.1178,3.576046 z"
     id="path-1-4"
     style="fill:#000000;fill-rule:nonzero;stroke:#e6f598;stroke-width:16.2202;stroke-linecap:butt;stroke-linejoin:miter;stroke-miterlimit:4.4;stroke-dasharray:none;stroke-opacity:1"
     inkscape:original-d="m 54.244175,60.793779 c 11.46171,0.12294 22.97032,-0.5618 34.34866,1.14495 3.78232,0.56735 7.78058,1.52661 11.449555,1.52661"
     inkscape:path-effect="#path-effect907;#path-effect909" /><path
     d="m 55.448033,87.770812 c 3.263963,-0.107517 8.837199,-0.237822 15.54056,-0.06594 v 0 c 4.552356,0.11673 10.095668,0.382886 16.268288,0.971268 6.115388,0.582927 10.876388,1.296681 13.644949,1.744268 a 1.7889926,1.7889926 90 0 0 0.57104,-3.532124 C 98.653861,86.432545 93.811952,85.706778 87.5964,85.114303 81.32484,84.51649 75.69695,84.246444 71.080308,84.128066 v 0 c -6.797841,-0.174308 -12.446279,-0.04213 -15.750071,0.0667 a 1.7889926,1.7889926 90 0 0 0.117796,3.576046 z"
     id="path-1-6"
     style="fill:#000000;fill-rule:nonzero;stroke:#cccccc;stroke-width:16.2202;stroke-linecap:butt;stroke-linejoin:miter;stroke-miterlimit:4.4;stroke-dasharray:none;stroke-opacity:1"
     inkscape:original-d="m 55.389135,85.982789 c 11.4617,0.12295 22.97031,-0.5618 34.34867,1.14495 3.7823,0.56735 7.78056,1.52661 11.449545,1.52661"
     inkscape:path-effect="#path-effect903;#path-effect905" /></g></svg>
