<?xml version="1.0" encoding="UTF-8" standalone="no"?>
<svg
   xmlns:dc="http://purl.org/dc/elements/1.1/"
   xmlns:cc="http://creativecommons.org/ns#"
   xmlns:rdf="http://www.w3.org/1999/02/22-rdf-syntax-ns#"
   xmlns:svg="http://www.w3.org/2000/svg"
   xmlns="http://www.w3.org/2000/svg"
   xmlns:sodipodi="http://sodipodi.sourceforge.net/DTD/sodipodi-0.dtd"
   xmlns:inkscape="http://www.inkscape.org/namespaces/inkscape"
   inkscape:version="1.0 (4035a4fb49, 2020-05-01)"
   sodipodi:docname="male-head-side-view-with-brains-svgrepo-com.svg"
   xml:space="preserve"
   viewBox="0 0 162.202 182.47725"
   height="900"
   width="800"
   id="Capa_1"
   version="1.1"
   fill="#000000"><metadata
   id="metadata1492"><rdf:RDF><cc:Work
       rdf:about=""><dc:format>image/svg+xml</dc:format><dc:type
         rdf:resource="http://purl.org/dc/dcmitype/StillImage" /><dc:title></dc:title></cc:Work></rdf:RDF></metadata><defs
   id="defs1490"><inkscape:path-effect
   effect="powerstroke"
   id="path-effect2609"
   is_visible="true"
   lpeversion="1"
   offset_points="0.34056465,1.7889926"
   sort_points="true"
   interpolator_type="CentripetalCatmullRom"
   interpolator_beta="0.75"
   start_linecap_type="round"
   linejoin_type="spiro"
   miter_limit="4"
   scale_width="1"
   end_linecap_type="round" /><inkscape:path-effect
   effect="simplify"
   id="path-effect2607"
   is_visible="true"
   lpeversion="1"
   steps="1"
   threshold="0.6"
   smooth_angles="0"
   helper_size="0"
   simplify_individual_paths="false"
   simplify_just_coalesce="false"
   step="1" /><inkscape:path-effect
   effect="powerstroke"
   id="path-effect2597"
   is_visible="true"
   lpeversion="1"
   offset_points="0.34056465,1.7889926"
   sort_points="true"
   interpolator_type="CentripetalCatmullRom"
   interpolator_beta="0.75"
   start_linecap_type="round"
   linejoin_type="spiro"
   miter_limit="4"
   scale_width="1"
   end_linecap_type="round" /><inkscape:path-effect
   effect="simplify"
   id="path-effect2595"
   is_visible="true"
   lpeversion="1"
   steps="1"
   threshold="0.6"
   smooth_angles="0"
   helper_size="0"
   simplify_individual_paths="false"
   simplify_just_coalesce="false"
   step="1" /><inkscape:path-effect
   simplify_just_coalesce="false"
   simplify_individual_paths="false"
   helper_size="0"
   smooth_angles="360"
   threshold="0.5"
   steps="1"
   lpeversion="1"
   is_visible="true"
   id="path-effect2572"
   effect="simplify" /><inkscape:path-effect
   simplify_just_coalesce="false"
   simplify_individual_paths="false"
   helper_size="0"
   smooth_angles="360"
   threshold="0.5"
   steps="1"
   lpeversion="1"
   is_visible="true"
   id="path-effect2566"
   effect="simplify" /><inkscape:path-effect
   lpeversion="1"
   is_visible="true"
   id="path-effect2562"
   effect="spiro" /><inkscape:path-effect
   simplify_just_coalesce="false"
   simplify_individual_paths="false"
   helper_size="0"
   smooth_angles="360"
   threshold="0.5"
   steps="1"
   lpeversion="1"
   is_visible="true"
   id="path-effect2560"
   effect="simplify" /><inkscape:path-effect
   end_linecap_type="round"
   scale_width="1"
   miter_limit="4"
   linejoin_type="spiro"
   start_linecap_type="round"
   interpolator_beta="0.75"
   interpolator_type="CentripetalCatmullRom"
   sort_points="true"
   offset_points="0.64583356,1.7889926"
   lpeversion="1"
   is_visible="true"
   id="path-effect2554"
   effect="powerstroke" /><inkscape:path-effect
   step="1"
   simplify_just_coalesce="false"
   simplify_individual_paths="false"
   helper_size="0"
   smooth_angles="0"
   threshold="0.6"
   steps="1"
   lpeversion="1"
   is_visible="true"
   id="path-effect2552"
   effect="simplify" /><inkscape:path-effect
   end_linecap_type="round"
   scale_width="1"
   miter_limit="4"
   linejoin_type="spiro"
   start_linecap_type="round"
   interpolator_beta="0.75"
   interpolator_type="CentripetalCatmullRom"
   sort_points="true"
   offset_points="0.34056465,1.7889926"
   lpeversion="1"
   is_visible="true"
   id="path-effect2547"
   effect="powerstroke" /><inkscape:path-effect
   step="1"
   simplify_just_coalesce="false"
   simplify_individual_paths="false"
   helper_size="0"
   smooth_angles="0"
   threshold="0.6"
   steps="1"
   lpeversion="1"
   is_visible="true"
   id="path-effect2545"
   effect="simplify" /><inkscape:path-effect
   end_linecap_type="round"
   scale_width="1"
   miter_limit="4"
   linejoin_type="spiro"
   start_linecap_type="round"
   interpolator_beta="0.75"
   interpolator_type="CentripetalCatmullRom"
   sort_points="true"
   offset_points="0.18659971,1.7889926"
   lpeversion="1"
   is_visible="true"
   id="path-effect2540"
   effect="powerstroke" /><inkscape:path-effect
   step="1"
   simplify_just_coalesce="false"
   simplify_individual_paths="false"
   helper_size="0"
   smooth_angles="0"
   threshold="0.6"
   steps="1"
   lpeversion="1"
   is_visible="true"
   id="path-effect2538"
   effect="simplify" /><marker
   inkscape:isstock="true"
   style="overflow:visible"
   id="Arrow1Lstart"
   refX="0"
   refY="0"
   orient="auto"
   inkscape:stockid="Arrow1Lstart"><path
     transform="matrix(0.8,0,0,0.8,10,0)"
     style="fill:#000000;fill-opacity:1;fill-rule:evenodd;stroke:none;stroke-width:1pt;stroke-opacity:1"
     d="M 0,0 5,-5 -12.5,0 5,5 Z"
     id="path2258" /></marker>
	
</defs><sodipodi:namedview
   inkscape:current-layer="Capa_1"
   inkscape:window-maximized="1"
   inkscape:window-y="-8"
   inkscape:window-x="-8"
   inkscape:cy="504.48797"
   inkscape:cx="555.76151"
   inkscape:zoom="0.53125"
   inkscape:snap-grids="true"
   showgrid="false"
   id="namedview1488"
   inkscape:window-height="1017"
   inkscape:window-width="1920"
   inkscape:pageshadow="2"
   inkscape:pageopacity="0"
   guidetolerance="10"
   gridtolerance="10"
   objecttolerance="10"
   borderopacity="1"
   bordercolor="#666666"
   pagecolor="#ffffff" />
<path
   style="display:inline;mix-blend-mode:color-dodge;fill:none;stroke:#000000;stroke-width:10.0014;stroke-linejoin:round;stroke-miterlimit:4.4;stroke-dasharray:none;stroke-dashoffset:0.745967;stroke-opacity:1;paint-order:fill markers stroke"
   sodipodi:nodetypes="cccccccccccccsccccccccccccccccccccccsccccccccccccccccsccccscccssccccccscccccsccccccscccccscccccsccc"
   d="m 145.716,96.491035 c 0.036,0 0,2.339 -1.954,4.409005 -1.419,1.491 -3.398,2.411 -5.913,2.733 0.006,0.146 0.024,0.329 0.055,0.549 l 0.104,5.79 c -0.085,0.792 -0.438,2.734 -2.618,4.293 0.396,1.571 0.335,4.062 -1.973,7.295 -1.169,1.571 -1.65,2.21 -1.157,3.97 0.433,2.303 1.34,9 -2.441,11.716 -1.407,1.291 -5.986,4.226 -17.641,2.765 l -1.735,-0.244 c -5.078,-0.767 -9.518,-1.113 -12.343,2.424 -3.939,7.611 -10.918,21.714 -11.493,25.051 -0.256,1.522 -1.577,2.594 -3.06,2.594 -0.177,0 -0.356,-0.012 -0.524,-0.036 -1.696,-0.292 -2.844,-1.899 -2.558,-3.593 0.898,-5.297 10.525,-23.76 12.44,-27.407 5.597,-7.13 13.646,-5.906 18.463,-5.188 l 1.577,0.226 c 9.858,1.181 12.641,-1.17 12.671,-1.176 0.214,-0.268 0.329,-0.329 0.621,-0.499 0.262,-0.47 0.335,-3.179 -0.042,-5.213 -1.255,-4.433 0.81,-7.203 1.924,-8.701 0.975,-1.364 1.193,-2.095 1.212,-2.375 -1.455,-2.21 -0.944,-4.292 0.17,-5.431 0.348,-0.366 0.773,-0.621 1.23,-0.768 0.548,-0.177 0.877,-0.378 1.054,-0.493 l -0.098,-4.549 c -0.292,-2.095 0.079,-4.019 1.126,-5.383005 1.029,-1.327 2.309,-1.632 2.808,-1.687 1.899,-0.049 3.1,-0.384 3.617,-0.932 0,-0.146 0.273,-0.682 0.292,-0.847 -0.243,-1.264 -4.067,-8.829 -7.489,-14.852 -3.41,-6.546 -1.054,-11.417 0.511,-14.641 0.493,-1.02 1.005,-2.077 1.06,-2.691 1.718,-17.795 -5.182,-27.611 -11.387,-34.164 -12.124,-12.831 -27.597,-15.574 -38.613,-15.574 h -0.505 c -28.239,0.204 -38.812,9.383 -46.509,17.975 -16.766,18.712 -13.734,34.681 -13.603,35.359 0.387,8.382 10.543,23.413 14.434,28.547 12.556,18.035005 6.54,32.138005 6.278,32.734005 -0.703,1.571 -2.563,2.29 -4.107,1.584 -1.574,-0.683 -2.283,-2.521 -1.598,-4.092 0.213,-0.512 4.746,-11.68 -5.611,-26.562005 -1.477,-1.948 -15.101,-20.228 -15.564,-31.438 -0.101,-0.262 -3.891,-19.065 15.135,-40.292 9.215,-10.28 21.777,-19.8339997 51.097,-20.0439997 12.501,0.131 29.837,2.8739997 43.695,17.5269997 7.118,7.505 15.034,18.736 13.08,39.044 -0.165,1.726 -0.92,3.294 -1.669,4.807 -1.37,2.832 -2.545,5.276 -0.646,8.948 8.605,15.123 8.306,17.601 8.197,18.532 z M 94.438508,-17.524443 c 0,0 0.694821,-12.244463 -1.911179,-9.812463 -2.408,2.244 0.317777,6.195955 -3.804223,7.967955 -0.21,0.091 -2.492767,-6.651609 -2.711767,-6.562609 -0.329,3.042 13.654767,1.468609 2.711767,6.562609 -0.423,0.201 2.870981,-11.336837 2.429981,-11.336837 -1.172,0 -1.899981,12.481837 -2.429981,11.336837 -0.728,-1.559 8.333972,-7.016543 9.891972,-7.738543 5.779002,-2.694 -7.010749,2.796588 -6.087749,-0.229412 -2.226,0.457 -12.002122,14.311905 -10.907491,12.511562 l 5.337124,-8.77799 c 3.2522,-5.348906 1.017099,7.012186 -2.355901,3.209186 -3.626,-4.083 -0.886,7.378 0,0 2.101,-17.695 -18.961955,2.665197 4.122045,1.025197 23.264004,-1.571 34.076844,-9.996689 36.359844,4.781311 0.884,5.7180003 7.12295,-0.487946 4.13995,2.983054 -5.553,6.4850003 -3.17788,-4.869812 -22.13688,-7.064812 z m 19.473932,-0.479223 c 5.057,0.594 -13.48458,2.91824 -9.57458,2.87624 0.007,-0.019 9.56758,-2.85824 9.57458,-2.87624 0.676,-2.295 9.6489,-0.03774 7.9209,-2.251741 -0.238,-0.298 -8.3894,-3.633438 -10.8734,-3.520438 -0.049,0.006 0.031,0 0,0 -1.668,0 10.70277,19.1651063 10.62077,17.4811063 -0.082,-1.714 -18.97485,-8.7626873 -17.24285,-8.8326873 4.549,-0.241 12.99577,-10.053205 14.34077,-8.327205 3.124,4.01 10.85034,0.262054 10.18034,3.534054 5.243,-0.691 -9.01063,1.99117 -7.02563,-0.33483 1.76,-2.058 3.85261,9.558767 3.24961,5.667767 -1.607,-10.424 30.30821,-13.798831 12.77421,-13.798831 -1.482,0 -50.310821,2.347911 -51.845821,2.454911 -9.365,0.66 -12.901527,-0.47117 -19.586527,4.03083 1.504,0.201 28.96332,12.8128573 30.37932,13.6278573 3.646998,2.089 -14.879196,-26.4424003 -14.435196,-20.8314003 0.137,1.717 3.946125,8.579125 2.232125,8.710125 -0.088,0.006 0.088,0 0,0 -1.611,0 -4.501607,0.293607 -4.626607,-1.341393 -0.274,-3.434 43.350256,16.4518023 41.606256,15.4408023 -2.902,-1.671 -43.478265,-14.2971163 -45.417265,-13.4541163 -3.054,3.846 8.985616,-5.230293 8.437616,-0.645293 -0.655,5.529 -10.830616,-2.049707 -8.437616,0.645293 2.725,3.063 0.456134,-7.060265 3.549134,-7.060265 3.641,0 1.999223,6.735035 5.783223,5.118035 3.124,-1.346 11.95908,10.592115 14.22108,8.479115 3.230998,-2.98 9.257558,-5.346696 14.195558,-4.791696 z"
   id="path1483" />
<path
   inkscape:path-effect="#path-effect2545;#path-effect2547"
   inkscape:original-d="m 60.68263,36.256917 c 11.461703,0.122946 22.970312,-0.561797 34.348659,1.144955 3.782314,0.567347 7.780571,1.526607 11.449551,1.526607"
   style="fill:#000000;fill-rule:nonzero;stroke:#000000;stroke-width:16.2202;stroke-linecap:butt;stroke-linejoin:miter;stroke-miterlimit:4.4;stroke-dasharray:none;stroke-opacity:1"
   id="path-1"
   d="m 60.741529,38.04494 c 3.263971,-0.107519 8.837189,-0.237824 15.540556,-0.06594 v 0 c 4.552359,0.116731 10.095664,0.38289 16.268286,0.971274 6.115384,0.582927 10.876389,1.29668 13.644959,1.744264 a 1.7889926,1.7889926 90 0 0 0.57102,-3.532124 c -2.819,-0.455739 -7.660912,-1.181505 -13.876459,-1.77398 -6.271562,-0.597815 -11.899444,-0.867864 -16.516089,-0.986243 v 0 c -6.797849,-0.17431 -12.44627,-0.04213 -15.750071,0.0667 a 1.7889926,1.7889926 90 0 0 0.117798,3.576046 z" /><path
   d="m 51.196727,61.981106 c 3.26397,-0.107519 8.837189,-0.237824 15.540556,-0.06594 v 0 c 4.552358,0.116731 10.095664,0.38289 16.268286,0.971273 6.115384,0.582928 10.876393,1.296681 13.644955,1.744265 a 1.7889926,1.7889926 90 0 0 0.571028,-3.532124 C 94.402552,60.642844 89.560636,59.917078 83.345089,59.324602 77.073527,58.726788 71.445645,58.456739 66.829,58.338359 v 0 C 60.031152,58.16405 54.382729,58.29623 51.078929,58.40506 a 1.7889926,1.7889926 90 0 0 0.117798,3.576046 z"
   id="path-1-4"
   style="fill:#000000;fill-rule:nonzero;stroke:#000000;stroke-width:16.2202;stroke-linecap:butt;stroke-linejoin:miter;stroke-miterlimit:4.4;stroke-dasharray:none;stroke-opacity:1"
   inkscape:original-d="m 51.137828,60.193083 c 11.46171,0.122946 22.97032,-0.561797 34.34866,1.144955 3.78232,0.567347 7.78058,1.526607 11.44955,1.526607"
   inkscape:path-effect="#path-effect2595;#path-effect2597" /><path
   d="m 52.341685,87.170124 c 3.26397,-0.107518 8.83719,-0.237824 15.540557,-0.06594 v 0 c 4.552359,0.116732 10.095665,0.38289 16.268288,0.971274 6.115384,0.582927 10.876393,1.29668 13.644955,1.744264 a 1.7889926,1.7889926 90 0 0 0.571028,-3.532124 c -2.819,-0.455739 -7.660917,-1.181505 -13.876464,-1.77398 -6.271562,-0.597815 -11.899445,-0.867864 -16.51609,-0.986243 v 0 c -6.797848,-0.17431 -12.446272,-0.04213 -15.750072,0.0667 a 1.7889926,1.7889926 90 0 0 0.117798,3.576046 z"
   id="path-1-6"
   style="fill:#000000;fill-rule:nonzero;stroke:#000000;stroke-width:16.2202;stroke-linecap:butt;stroke-linejoin:miter;stroke-miterlimit:4.4;stroke-dasharray:none;stroke-opacity:1"
   inkscape:original-d="m 52.282786,85.382101 c 11.461703,0.122946 22.970313,-0.561796 34.348663,1.144955 3.78231,0.567347 7.78057,1.526607 11.44955,1.526607"
   inkscape:path-effect="#path-effect2607;#path-effect2609" /></svg>
