<?xml version="1.0" encoding="UTF-8" standalone="no"?>
<svg
   xmlns:dc="http://purl.org/dc/elements/1.1/"
   xmlns:cc="http://creativecommons.org/ns#"
   xmlns:rdf="http://www.w3.org/1999/02/22-rdf-syntax-ns#"
   xmlns:svg="http://www.w3.org/2000/svg"
   xmlns="http://www.w3.org/2000/svg"
   xmlns:sodipodi="http://sodipodi.sourceforge.net/DTD/sodipodi-0.dtd"
   xmlns:inkscape="http://www.inkscape.org/namespaces/inkscape"
   inkscape:version="1.0 (4035a4fb49, 2020-05-01)"
   sodipodi:docname="male-head-side-view-with-brains-svgrepo-com2.svg"
   xml:space="preserve"
   viewBox="0 0 192.61488 192.61488"
   height="950"
   width="950"
   id="Capa_1"
   version="1.1"
   fill="#000000"><metadata
   id="metadata1492"><rdf:RDF><cc:Work
       rdf:about=""><dc:format>image/svg+xml</dc:format><dc:type
         rdf:resource="http://purl.org/dc/dcmitype/StillImage" /><dc:title></dc:title></cc:Work></rdf:RDF></metadata><defs
   id="defs1490"><inkscape:path-effect
     end_linecap_type="round"
     scale_width="1"
     miter_limit="4"
     linejoin_type="spiro"
     start_linecap_type="round"
     interpolator_beta="0.75"
     interpolator_type="CentripetalCatmullRom"
     sort_points="true"
     offset_points="0.34056465,1.7889926"
     lpeversion="1"
     is_visible="true"
     id="path-effect967"
     effect="powerstroke" /><inkscape:path-effect
     step="1"
     simplify_just_coalesce="false"
     simplify_individual_paths="false"
     helper_size="0"
     smooth_angles="0"
     threshold="0.6"
     steps="1"
     lpeversion="1"
     is_visible="true"
     id="path-effect965"
     effect="simplify" /><inkscape:path-effect
     effect="powerstroke"
     id="path-effect944"
     is_visible="true"
     lpeversion="1"
     offset_points="0.34056465,1.7889926"
     sort_points="true"
     interpolator_type="CentripetalCatmullRom"
     interpolator_beta="0.75"
     start_linecap_type="round"
     linejoin_type="spiro"
     miter_limit="4"
     scale_width="1"
     end_linecap_type="round" /><inkscape:path-effect
     effect="simplify"
     id="path-effect942"
     is_visible="true"
     lpeversion="1"
     steps="1"
     threshold="0.6"
     smooth_angles="0"
     helper_size="0"
     simplify_individual_paths="false"
     simplify_just_coalesce="false"
     step="1" /><inkscape:path-effect
     end_linecap_type="round"
     scale_width="1"
     miter_limit="4"
     linejoin_type="spiro"
     start_linecap_type="round"
     interpolator_beta="0.75"
     interpolator_type="CentripetalCatmullRom"
     sort_points="true"
     offset_points="0.34056465,1.7889926"
     lpeversion="1"
     is_visible="true"
     id="path-effect905"
     effect="powerstroke" /><inkscape:path-effect
     step="1"
     simplify_just_coalesce="false"
     simplify_individual_paths="false"
     helper_size="0"
     smooth_angles="0"
     threshold="0.6"
     steps="1"
     lpeversion="1"
     is_visible="true"
     id="path-effect903"
     effect="simplify" /></defs><sodipodi:namedview
   inkscape:current-layer="layer3"
   inkscape:window-maximized="1"
   inkscape:window-y="-8"
   inkscape:window-x="-8"
   inkscape:cy="388.98527"
   inkscape:cx="324.00875"
   inkscape:zoom="0.53125"
   inkscape:snap-grids="true"
   showgrid="false"
   id="namedview1488"
   inkscape:window-height="1017"
   inkscape:window-width="1920"
   inkscape:pageshadow="2"
   inkscape:pageopacity="0"
   guidetolerance="10"
   gridtolerance="10"
   objecttolerance="10"
   borderopacity="1"
   bordercolor="#666666"
   pagecolor="#ffffff"
   inkscape:document-rotation="0"
   showguides="false" />

<g
   style="display:inline"
   inkscape:groupmode="layer"
   id="layer3"
   inkscape:label="bg"><rect
     style="display:inline;opacity:1;fill:#111317;fill-opacity:1;fill-rule:evenodd;stroke:#1180e8;stroke-width:3.83154;stroke-linejoin:bevel;stroke-opacity:1"
     id="rect916"
     width="301.17331"
     height="267.70959"
     x="-39.973286"
     y="-45.250935" /></g><g
   style="display:inline"
   inkscape:label="remoe"
   id="layer5"
   inkscape:groupmode="layer"><path
     sodipodi:nodetypes="cccccccccccccsccccccccccccccccccccccscccccccccccccccc"
     id="path1483"
     d="m 162.94348,107.39632 c 0.036,0 0,2.339 -1.954,4.40901 -1.419,1.491 -3.398,2.411 -5.913,2.733 0.006,0.146 0.024,0.329 0.055,0.549 l 0.104,5.79 c -0.085,0.792 -0.438,2.734 -2.618,4.293 0.396,1.571 0.335,4.062 -1.973,7.295 -1.169,1.571 -1.65,2.21 -1.157,3.97 0.433,2.303 1.34,9 -2.441,11.716 -1.407,1.291 -5.986,4.226 -17.641,2.765 l -1.73501,-0.244 c -5.07799,-0.767 -9.51799,-1.113 -12.343,2.424 -3.939,7.611 -10.918,21.714 -11.493,25.05099 -0.256,1.522 -1.57701,2.59402 -3.06,2.59402 -0.17701,0 -0.35601,-0.012 -0.524,-0.036 -1.695999,-0.29201 -2.844009,-1.899 -2.557999,-3.593 0.89799,-5.297 10.524999,-23.76 12.439989,-27.407 5.59702,-7.13 13.64602,-5.906 18.46302,-5.188 l 1.577,0.226 c 9.858,1.181 12.641,-1.17 12.671,-1.176 0.214,-0.268 0.329,-0.329 0.621,-0.499 0.262,-0.47 0.335,-3.179 -0.042,-5.213 -1.255,-4.433 0.81,-7.203 1.924,-8.701 0.975,-1.364 1.193,-2.095 1.212,-2.375 -1.455,-2.21 -0.944,-4.292 0.17,-5.431 0.348,-0.366 0.773,-0.621 1.23,-0.768 0.548,-0.177 0.877,-0.378 1.054,-0.493 l -0.098,-4.549 c -0.292,-2.095 0.079,-4.019 1.126,-5.38301 1.029,-1.327 2.309,-1.632 2.808,-1.687 1.899,-0.049 3.1,-0.384 3.617,-0.932 0,-0.146 0.273,-0.682 0.292,-0.847 -0.243,-1.264 -4.067,-8.829003 -7.489,-14.852003 -3.41,-6.546 -1.054,-11.417 0.511,-14.641 0.493,-1.02 1.005,-2.07699 1.06,-2.69099 1.718,-17.795 -5.182,-27.611004 -11.387,-34.164003 -12.124,-12.831009 -27.59701,-15.574009 -38.61301,-15.574009 h -0.50501 c -28.238989,0.203999 -38.811989,9.383 -46.508989,17.975 -16.76601,18.712002 -13.73401,34.680992 -13.60301,35.358992 0.387,8.382 10.543,23.413003 14.43401,28.547003 12.556,18.03501 6.53999,32.13801 6.278,32.73401 -0.703,1.571 -2.56301,2.29 -4.107,1.584 -1.574,-0.683 -2.28301,-2.521 -1.59801,-4.092 0.21301,-0.512 4.746,-11.68 -5.61099,-26.56201 -1.477,-1.948 -15.10101,-20.228003 -15.56401,-31.438003 -0.101,-0.262 -3.891,-19.06499 15.13501,-40.291993 9.21499,-10.279999 21.77699,-19.833999 51.096989,-20.044 12.50101,0.131 29.83702,2.874 43.69502,17.527001 7.118,7.504999 15.034,18.736002 13.08,39.044002 -0.165,1.72599 -0.92,3.29399 -1.669,4.80699 -1.37,2.832 -2.545,5.276 -0.646,8.948 8.605,15.123003 8.306,17.601003 8.197,18.532003 z"
     style="display:inline;mix-blend-mode:color-dodge;fill:#ff6600;fill-opacity:1;stroke:#f46d43;stroke-width:10.0011;stroke-linejoin:round;stroke-miterlimit:4.4;stroke-dasharray:none;stroke-dashoffset:0.745967;stroke-opacity:1;paint-order:fill markers stroke" /></g><g
   style="display:inline"
   inkscape:groupmode="layer"
   id="layer2"
   inkscape:label="Layer 1"><path
     inkscape:label="inner"
     inkscape:path-effect="#path-effect903;#path-effect905"
     inkscape:original-d="m 82.039768,106.78281 c 9.822732,0.12295 19.685662,-0.5618 29.436972,1.14495 3.24146,0.56735 6.66799,1.52661 9.81233,1.52661"
     style="display:inline;fill:#000000;fill-rule:nonzero;stroke:#f46d43;stroke-width:16.2202;stroke-linecap:butt;stroke-linejoin:miter;stroke-miterlimit:4.4;stroke-dasharray:none;stroke-opacity:1"
     id="path-1-6"
     d="m 82.10879,108.57047 c 2.795696,-0.10794 7.560392,-0.23798 13.300174,-0.0654 v 0 c 3.896479,0.11714 8.637266,0.38369 13.910666,0.9707 5.22258,0.58135 9.28153,1.29184 11.63761,1.73658 a 1.7889926,1.7889926 90 0 0 0.66366,-3.5159 c -2.41421,-0.45571 -6.56673,-1.18243 -11.90544,-1.7767 -5.38821,-0.59979 -10.227399,-0.87165 -14.198983,-0.99105 v 0 c -5.85024,-0.17587 -10.702953,-0.0433 -13.545731,0.0665 a 1.7889926,1.7889926 90 0 0 0.138044,3.57532 z" /><path
     inkscape:label="inner"
     d="m 69.173933,79.348041 c 2.795693,-0.107942 7.560393,-0.237978 13.300171,-0.06543 v 0 c 3.896477,0.117135 8.637262,0.383691 13.910658,0.970696 5.222578,0.581349 9.281528,1.291846 11.637608,1.73658 a 1.7889926,1.7889926 90 0 0 0.66366,-3.515896 c -2.41421,-0.455709 -6.56672,-1.18243 -11.905432,-1.776706 -5.388208,-0.599785 -10.2274,-0.87165 -14.198981,-0.991044 v 0 c -5.850236,-0.175869 -10.702952,-0.04328 -13.545726,0.06648 a 1.7889926,1.7889926 90 0 0 0.138042,3.575322 z"
     id="path-1-6-0"
     style="display:inline;fill:#000000;fill-rule:nonzero;stroke:#f46d43;stroke-width:16.2202;stroke-linecap:butt;stroke-linejoin:miter;stroke-miterlimit:4.4;stroke-dasharray:none;stroke-opacity:1"
     inkscape:original-d="m 69.104912,77.56038 c 9.822731,0.12295 19.685667,-0.5618 29.436976,1.14495 3.241452,0.56735 6.667982,1.52661 9.812312,1.52661"
     inkscape:path-effect="#path-effect942;#path-effect944" /><path
     inkscape:label="inner head"
     inkscape:path-effect="#path-effect965;#path-effect967"
     inkscape:original-d="m 79.600336,50.844756 c 9.822731,0.12295 19.685668,-0.5618 29.436974,1.14495 3.24146,0.56735 6.66799,1.52661 9.81233,1.52661"
     style="display:inline;fill:#000000;fill-rule:nonzero;stroke:#f46d43;stroke-width:16.2202;stroke-linecap:butt;stroke-linejoin:miter;stroke-miterlimit:4.4;stroke-dasharray:none;stroke-opacity:1"
     id="path-1-6-0-2"
     d="m 79.669358,52.632417 c 2.795696,-0.107942 7.560393,-0.237979 13.300175,-0.06543 v 0 c 3.896479,0.117136 8.637267,0.383693 13.910667,0.970698 5.22258,0.581349 9.28153,1.291845 11.63761,1.736579 a 1.7889926,1.7889926 90 0 0 0.66366,-3.515898 c -2.41421,-0.455707 -6.56673,-1.182428 -11.90544,-1.776703 -5.38821,-0.599785 -10.2274,-0.871652 -14.198984,-0.991046 v 0 c -5.85024,-0.17587 -10.702954,-0.04328 -13.545732,0.06648 a 1.7889926,1.7889926 90 0 0 0.138044,3.575322 z" /></g></svg>
