<?xml version="1.0" encoding="UTF-8" standalone="no"?>
<svg
   xmlns:dc="http://purl.org/dc/elements/1.1/"
   xmlns:cc="http://creativecommons.org/ns#"
   xmlns:rdf="http://www.w3.org/1999/02/22-rdf-syntax-ns#"
   xmlns:svg="http://www.w3.org/2000/svg"
   xmlns="http://www.w3.org/2000/svg"
   xmlns:sodipodi="http://sodipodi.sourceforge.net/DTD/sodipodi-0.dtd"
   xmlns:inkscape="http://www.inkscape.org/namespaces/inkscape"
   inkscape:version="1.0 (4035a4fb49, 2020-05-01)"
   sodipodi:docname="male-head-side-view-with-brains-svgrepo-com2.svg"
   xml:space="preserve"
   viewBox="0 0 182.47725 182.47725"
   height="900"
   width="900"
   id="Capa_1"
   version="1.1"
   fill="#000000"><metadata
   id="metadata1492"><rdf:RDF><cc:Work
       rdf:about=""><dc:format>image/svg+xml</dc:format><dc:type
         rdf:resource="http://purl.org/dc/dcmitype/StillImage" /><dc:title></dc:title></cc:Work></rdf:RDF></metadata><defs
   id="defs1490"><inkscape:path-effect
     end_linecap_type="round"
     scale_width="1"
     miter_limit="4"
     linejoin_type="spiro"
     start_linecap_type="round"
     interpolator_beta="0.75"
     interpolator_type="CentripetalCatmullRom"
     sort_points="true"
     offset_points="0.34056465,1.7889926"
     lpeversion="1"
     is_visible="true"
     id="path-effect967"
     effect="powerstroke" /><inkscape:path-effect
     step="1"
     simplify_just_coalesce="false"
     simplify_individual_paths="false"
     helper_size="0"
     smooth_angles="0"
     threshold="0.6"
     steps="1"
     lpeversion="1"
     is_visible="true"
     id="path-effect965"
     effect="simplify" /><inkscape:path-effect
     effect="powerstroke"
     id="path-effect944"
     is_visible="true"
     lpeversion="1"
     offset_points="0.34056465,1.7889926"
     sort_points="true"
     interpolator_type="CentripetalCatmullRom"
     interpolator_beta="0.75"
     start_linecap_type="round"
     linejoin_type="spiro"
     miter_limit="4"
     scale_width="1"
     end_linecap_type="round" /><inkscape:path-effect
     effect="simplify"
     id="path-effect942"
     is_visible="true"
     lpeversion="1"
     steps="1"
     threshold="0.6"
     smooth_angles="0"
     helper_size="0"
     simplify_individual_paths="false"
     simplify_just_coalesce="false"
     step="1" /><inkscape:path-effect
     end_linecap_type="round"
     scale_width="1"
     miter_limit="4"
     linejoin_type="spiro"
     start_linecap_type="round"
     interpolator_beta="0.75"
     interpolator_type="CentripetalCatmullRom"
     sort_points="true"
     offset_points="0.34056465,1.7889926"
     lpeversion="1"
     is_visible="true"
     id="path-effect905"
     effect="powerstroke" /><inkscape:path-effect
     step="1"
     simplify_just_coalesce="false"
     simplify_individual_paths="false"
     helper_size="0"
     smooth_angles="0"
     threshold="0.6"
     steps="1"
     lpeversion="1"
     is_visible="true"
     id="path-effect903"
     effect="simplify" /></defs><sodipodi:namedview
   inkscape:current-layer="layer3"
   inkscape:window-maximized="1"
   inkscape:window-y="-8"
   inkscape:window-x="-8"
   inkscape:cy="388.98527"
   inkscape:cx="324.00875"
   inkscape:zoom="0.53125"
   inkscape:snap-grids="true"
   showgrid="false"
   id="namedview1488"
   inkscape:window-height="1017"
   inkscape:window-width="1920"
   inkscape:pageshadow="2"
   inkscape:pageopacity="0"
   guidetolerance="10"
   gridtolerance="10"
   objecttolerance="10"
   borderopacity="1"
   bordercolor="#666666"
   pagecolor="#ffffff"
   inkscape:document-rotation="0"
   showguides="false" />

<g
   style="display:inline"
   inkscape:groupmode="layer"
   id="layer3"
   inkscape:label="bg"><rect
     style="display:inline;opacity:1;fill:#111317;fill-opacity:1;fill-rule:evenodd;stroke:#1180e8;stroke-width:3.83154;stroke-linejoin:bevel;stroke-opacity:1"
     id="rect916"
     width="301.17331"
     height="267.70959"
     x="-39.973286"
     y="-45.250935" /></g><g
   style="display:inline"
   inkscape:label="remoe"
   id="layer5"
   inkscape:groupmode="layer"><path
     sodipodi:nodetypes="cccccccccccccsccccccccccccccccccccccscccccccccccccccc"
     id="path1483"
     d="m 148.82236,97.091719 c 0.036,0 0,2.339 -1.954,4.409011 -1.419,1.491 -3.398,2.411 -5.913,2.733 0.006,0.146 0.024,0.329 0.055,0.549 l 0.104,5.79 c -0.085,0.792 -0.438,2.734 -2.618,4.293 0.396,1.571 0.335,4.062 -1.973,7.295 -1.169,1.571 -1.65,2.21 -1.157,3.97 0.433,2.303 1.34,9 -2.441,11.716 -1.407,1.291 -5.986,4.226 -17.641,2.765 l -1.73501,-0.244 c -5.07799,-0.767 -9.51799,-1.113 -12.343,2.424 -3.938995,7.611 -10.917995,21.714 -11.492995,25.05099 -0.256,1.522 -1.57701,2.59402 -3.06,2.59402 -0.17701,0 -0.35601,-0.012 -0.524,-0.036 -1.696,-0.29201 -2.84401,-1.899 -2.558,-3.593 0.89799,-5.297 10.525,-23.76 12.43999,-27.407 5.597015,-7.13 13.646015,-5.906 18.463015,-5.188 l 1.577,0.226 c 9.858,1.181 12.641,-1.17 12.671,-1.176 0.214,-0.268 0.329,-0.329 0.621,-0.499 0.262,-0.47 0.335,-3.179 -0.042,-5.213 -1.255,-4.433 0.81,-7.203 1.924,-8.701 0.975,-1.364 1.193,-2.095 1.212,-2.375 -1.455,-2.21 -0.944,-4.292 0.17,-5.431 0.348,-0.366 0.773,-0.621 1.23,-0.768 0.548,-0.177 0.877,-0.378 1.054,-0.493 l -0.098,-4.549 c -0.292,-2.095 0.079,-4.019 1.126,-5.383011 1.029,-1.327 2.309,-1.632 2.808,-1.687 1.899,-0.049 3.1,-0.384 3.617,-0.932 0,-0.146 0.273,-0.682 0.292,-0.847 -0.243,-1.264 -4.067,-8.829 -7.489,-14.852 -3.41,-6.546 -1.054,-11.417 0.511,-14.641 0.493,-1.02 1.005,-2.07699 1.06,-2.69099 1.718,-17.795 -5.182,-27.611004 -11.387,-34.164003 C 113.20736,17.205727 97.734355,14.462727 86.718355,14.462727 h -0.50501 c -28.23899,0.203999 -38.81199,9.383 -46.50899,17.975 -16.76601,18.712002 -13.73401,34.680992 -13.60301,35.358992 0.387,8.382 10.543,23.413 14.43401,28.547 12.556,18.035011 6.53999,32.138011 6.278,32.734011 -0.703,1.571 -2.56301,2.29 -4.107,1.584 -1.574,-0.683 -2.28301,-2.521 -1.59801,-4.092 0.21301,-0.512 4.746,-11.68 -5.61099,-26.56201 -1.477,-1.948001 -15.10101,-20.228001 -15.56401,-31.438001 -0.101,-0.262 -3.891,-19.06499 15.13501,-40.291993 9.21499,-10.279999 21.77699,-19.8339989 51.09699,-20.0439999 12.50101,0.131 29.837015,2.8739999 43.695015,17.5270009 7.118,7.504999 15.034,18.736002 13.08,39.044002 -0.165,1.72599 -0.92,3.29399 -1.669,4.80699 -1.37,2.832 -2.545,5.276 -0.646,8.948 8.605,15.123 8.306,17.601 8.197,18.532 z"
     style="display:inline;mix-blend-mode:color-dodge;fill:#ff6600;fill-opacity:1;stroke:#f46d43;stroke-width:10.0011;stroke-linejoin:round;stroke-miterlimit:4.4;stroke-dasharray:none;stroke-dashoffset:0.745967;stroke-opacity:1;paint-order:fill markers stroke" /></g><g
   style="display:inline"
   inkscape:groupmode="layer"
   id="layer2"
   inkscape:label="Layer 1"><path
     inkscape:label="inner"
     inkscape:path-effect="#path-effect903;#path-effect905"
     inkscape:original-d="m 67.918652,96.478213 c 9.822732,0.12295 19.685667,-0.5618 29.436976,1.14495 3.241452,0.56735 6.667982,1.52661 9.812322,1.52661"
     style="display:inline;fill:#000000;fill-rule:nonzero;stroke:#f46d43;stroke-width:16.2202;stroke-linecap:butt;stroke-linejoin:miter;stroke-miterlimit:4.4;stroke-dasharray:none;stroke-opacity:1"
     id="path-1-6"
     d="m 67.987674,98.265874 c 2.795694,-0.107942 7.560392,-0.237978 13.300173,-0.06543 v 0 c 3.896478,0.117136 8.637264,0.383692 13.910662,0.970697 5.222581,0.581349 9.281531,1.291848 11.637611,1.736578 a 1.7889926,1.7889926 90 0 0 0.66366,-3.515895 C 105.08557,96.936117 100.93305,96.209396 95.594345,95.615121 90.206135,95.015335 85.366943,94.743469 81.39536,94.624075 v 0 c -5.850238,-0.17587 -10.702953,-0.04328 -13.54573,0.06648 a 1.7889926,1.7889926 90 0 0 0.138044,3.575322 z" /><path
     inkscape:label="inner"
     d="m 55.052817,69.043443 c 2.795694,-0.107942 7.560393,-0.237978 13.300172,-0.06543 v 0 c 3.896477,0.117136 8.637263,0.383692 13.91066,0.970697 5.222579,0.581349 9.281528,1.291845 11.637608,1.736579 a 1.7889926,1.7889926 90 0 0 0.663662,-3.515896 C 92.150704,67.713686 87.998192,66.986964 82.659485,66.392689 77.271276,65.792904 72.432084,65.521038 68.460502,65.401645 v 0 c -5.850237,-0.17587 -10.702952,-0.04328 -13.545727,0.06648 a 1.7889926,1.7889926 90 0 0 0.138042,3.575322 z"
     id="path-1-6-0"
     style="display:inline;fill:#000000;fill-rule:nonzero;stroke:#f46d43;stroke-width:16.2202;stroke-linecap:butt;stroke-linejoin:miter;stroke-miterlimit:4.4;stroke-dasharray:none;stroke-opacity:1"
     inkscape:original-d="m 54.983796,67.255782 c 9.822731,0.12295 19.685667,-0.5618 29.436976,1.14495 3.241448,0.56735 6.66798,1.52661 9.812316,1.52661"
     inkscape:path-effect="#path-effect942;#path-effect944" /><path
     inkscape:label="inner head"
     inkscape:path-effect="#path-effect965;#path-effect967"
     inkscape:original-d="m 65.47922,40.540158 c 9.822731,0.12295 19.685668,-0.5618 29.436977,1.14495 3.241457,0.56735 6.667983,1.52661 9.812323,1.52661"
     style="display:inline;fill:#000000;fill-rule:nonzero;stroke:#f46d43;stroke-width:16.2202;stroke-linecap:butt;stroke-linejoin:miter;stroke-miterlimit:4.4;stroke-dasharray:none;stroke-opacity:1"
     id="path-1-6-0-2"
     d="m 65.548242,42.327819 c 2.795694,-0.107942 7.560393,-0.237978 13.300174,-0.06543 v 0 c 3.896478,0.117136 8.637264,0.383692 13.910662,0.970697 5.222581,0.581349 9.281532,1.291845 11.637612,1.736579 a 1.7889926,1.7889926 90 0 0 0.66366,-3.515896 C 102.64614,40.998062 98.493622,40.271341 93.154914,39.677066 87.766704,39.07728 82.927512,38.805414 78.955929,38.68602 v 0 c -5.850239,-0.17587 -10.702954,-0.04328 -13.545731,0.06648 a 1.7889926,1.7889926 90 0 0 0.138044,3.575322 z" /></g></svg>
